Coordinates
version=1
nRows=17
nColumns=40
inDegrees=yes

Units are S.I. units (second, meters, Newtons, ...)
Angles are in degrees.

endheader
time	pelvis_tilt	pelvis_list	pelvis_rotation	pelvis_tx	pelvis_ty	pelvis_tz	hip_flexion_r	hip_adduction_r	hip_rotation_r	knee_angle_r	knee_angle_r_beta	ankle_angle_r	subtalar_angle_r	mtp_angle_r	hip_flexion_l	hip_adduction_l	hip_rotation_l	knee_angle_l	knee_angle_l_beta	ankle_angle_l	subtalar_angle_l	mtp_angle_l	lumbar_extension	lumbar_bending	lumbar_rotation	arm_flex_r	arm_add_r	arm_rot_r	elbow_flex_r	pro_sup_r	wrist_flex_r	wrist_dev_r	arm_flex_l	arm_add_l	arm_rot_l	elbow_flex_l	pro_sup_l	wrist_flex_l	wrist_dev_l
      2.18000000	     -1.50129849	      9.61749827	     -3.15115998	     -0.53027186	      0.95476813	     -1.47152607	      9.96764822	    -25.01477851	    -11.99651117	    -57.51369147	     -1.00380328	     -5.44466034	    -12.59211600	      6.04944863	      8.78952336	    -10.04605011	     15.41788407	    -12.43898512	     -0.21710125	      0.85566077	      6.38409670	     -1.52103242	     -1.20197137	    -10.89341172	      5.01472129	      3.79456571	    -11.00768423	    -15.75459849	     20.05128295	     89.95437384	      0.00000000	      0.00000000	      1.12037327	     12.64489028	     13.46709805	     16.05481438	     89.95437384	      0.00000000	      0.00000000
      2.19000000	     -1.37006577	      9.31736274	     -3.28129797	     -0.52327467	      0.95554687	     -1.47366934	     11.00058251	    -24.71445089	    -12.02964016	    -58.20533781	     -1.01587479	     -4.35186779	    -13.80008277	      6.13893926	      7.93176926	     -9.96092385	     15.43529945	    -12.02978540	     -0.20995936	      1.23647116	      6.14225713	     -1.61793553	     -1.46180684	    -10.51297111	      4.66132988	      3.74715130	    -10.97484330	    -15.74071806	     19.73578847	     89.95437384	      0.00000000	      0.00000000	      1.87908087	     12.65560536	     13.15940932	     16.92488063	     89.95437384	      0.00000000	      0.00000000
      2.20000000	     -1.16871260	      8.89201436	     -3.43376254	     -0.51635929	      0.95650961	     -1.47540750	     11.94377799	    -24.13533397	    -12.01187334	    -58.74567008	     -1.02530536	     -2.35080571	    -15.23605051	     15.20352610	      7.03318434	     -9.68870529	     15.60963516	    -11.66767774	     -0.20363939	      1.26177965	      5.92617175	     -2.71394693	     -1.81625943	    -10.01924038	      4.43834526	      3.55865726	    -10.94585527	    -15.76931892	     19.64966558	     89.95437384	      0.00000000	      0.00000000	      2.53301737	     12.85334996	     11.84786386	     18.11002270	     89.95437384	      0.00000000	      0.00000000
      2.21000000	     -1.09286260	      8.57323442	     -3.45213711	     -0.50963596	      0.95726543	     -1.47735245	     12.89048219	    -23.70992801	    -12.13220477	    -58.95543481	     -1.02896645	     -1.44255081	    -16.01421948	     15.01227820	      6.30145462	     -9.55305936	     15.61239090	    -11.33827021	     -0.19789015	      1.51188723	      5.75944826	     -2.76090202	     -2.06082154	     -9.63932576	      3.99863979	      3.46402616	    -10.85934399	    -15.87348220	     19.48833997	     89.95437384	      0.00000000	      0.00000000	      3.28647672	     12.96994871	     11.57347857	     19.03841320	     89.95437384	      0.00000000	      0.00000000
      2.22000000	     -1.11345311	      8.30336824	     -3.29680071	     -0.50314331	      0.95783043	     -1.47971441	     13.90446602	    -23.47099244	    -12.53101270	    -59.03854281	     -1.03041696	     -1.00372628	    -16.21025741	     14.80075940	      5.78709714	     -9.46315601	     15.77067850	    -11.19719424	     -0.19542791	      1.74309367	      5.69220991	     -2.77351450	     -2.23428753	     -9.27067383	      3.42840023	      3.29960471	    -10.86108865	    -15.80277906	     19.45742198	     89.95437384	      0.00000000	      0.00000000	      4.13941195	     13.05406047	     11.35844223	     19.75908898	     89.95437384	      0.00000000	      0.00000000
      2.23000000	     -0.69542759	      7.73109863	     -3.01555500	     -0.49619997	      0.95917914	     -1.48144018	     13.98340036	    -22.67806221	    -13.11912688	    -58.52814975	     -1.02150892	     -0.12271155	    -17.12660016	     15.13568457	      4.58917276	     -9.08182548	     15.10095738	    -10.80739547	     -0.18862463	      1.96834565	      5.48219975	     -2.90110991	     -2.90891153	     -8.67101193	      2.74959430	      3.20837699	    -10.76939902	    -15.96891884	     19.28971321	     89.95437384	      0.00000000	      0.00000000	      4.66660930	     13.42275765	      9.81880949	     21.26432561	     89.95437384	      0.00000000	      0.00000000
      2.24000000	     -0.64256244	      7.40716287	     -2.81641016	     -0.48958587	      0.95977523	     -1.48333077	     14.73178802	    -22.21474254	    -13.49178531	    -58.10446410	     -1.01411421	      0.54166998	    -17.33613784	     15.24885803	      3.91378651	     -8.93218654	     14.83731018	    -10.53708254	     -0.18390678	      2.20196363	      5.34436362	     -2.98648709	     -3.14152735	     -8.29394673	      2.18184370	      3.02241593	    -10.69551909	    -15.99326754	     19.25707848	     89.95437384	      0.00000000	      0.00000000	      5.45102978	     13.63217948	      9.22901307	     22.14873599	     89.95437384	      0.00000000	      0.00000000
      2.25000000	     -0.40051369	      7.01563718	     -2.48055422	     -0.48284249	      0.96061649	     -1.48525087	     15.06180008	    -21.71116957	    -14.13961080	    -57.37493149	     -1.00138146	      1.13232613	    -17.42388205	     15.84952813	      3.04301220	     -8.71907010	     14.42159150	    -10.31313289	     -0.17999813	      2.41737182	      5.48778448	     -3.18513599	     -3.59512354	     -7.84980424	      1.46870640	      2.92548819	    -10.54135010	    -16.69670694	     19.15876776	     89.95437384	      0.00000000	      0.00000000	      6.18888464	     13.94542582	      8.23228596	     23.10404768	     89.95437384	      0.00000000	      0.00000000
      2.26000000	     -0.56112711	      6.88612267	     -2.32494943	     -0.47635685	      0.96065348	     -1.48713450	     16.11017670	    -21.43880427	    -14.34617063	    -56.69422291	     -0.98950086	      1.46327087	    -17.29845980	     15.64949457	      2.76172207	     -8.71627140	     14.49927432	    -10.30180074	     -0.17980034	      2.66737786	      5.44565951	     -3.20709800	     -3.53878482	     -7.65696183	      0.95827871	      2.70219870	    -10.49403863	    -16.63951195	     19.19996567	     89.95437384	      0.00000000	      0.00000000	      7.00345018	     14.11198040	      8.09022271	     23.75492057	     89.95437384	      0.00000000	      0.00000000
      2.27000000	     -0.55553109	      6.29354889	     -1.94124983	     -0.46977949	      0.96104248	     -1.48881505	     16.61638475	    -20.60055038	    -14.96979549	    -55.63717213	     -0.97105184	      2.05377628	    -17.34755858	     15.73534274	      2.19904932	     -8.24602330	     13.68938087	    -10.18724385	     -0.17780095	      3.01328836	      5.44721821	     -3.33527067	     -3.72452166	     -6.98437438	      0.24158462	      2.60626604	    -10.37379811	    -17.20964781	     19.07692213	     89.95437384	      0.00000000	      0.00000000	      7.64481691	     14.40756783	      7.26614988	     24.75332635	     89.95437384	      0.00000000	      0.00000000
      2.28000000	     -0.72349949	      6.25300114	     -1.79767786	     -0.46330230	      0.96090285	     -1.49055842	     17.61954771	    -20.39928897	    -15.17463248	    -54.65021242	     -0.95382614	      2.32056433	    -17.10140564	     15.54589470	      1.95536050	     -8.31725578	     13.81842940	    -10.22694247	     -0.17849382	      3.26752522	      5.44382147	     -3.36371621	     -3.63820834	     -6.88503791	     -0.31438919	      2.38933177	    -10.29357749	    -17.23999512	     19.15830861	     89.95437384	      0.00000000	      0.00000000	      8.39977284	     14.61429819	      7.13530547	     25.32905320	     89.95437384	      0.00000000	      0.00000000
      2.29000000	     -0.58872205	      5.56181610	     -1.30115372	     -0.45684171	      0.96139119	     -1.49198945	     17.80808895	    -19.45152535	    -16.00271240	    -53.20773529	     -0.92865017	      2.70284807	    -16.91121688	     15.85148033	      1.33642613	     -7.71395861	     12.82666508	    -10.28410498	     -0.17949149	      3.72345428	      5.87137298	     -3.70142867	     -4.00989288	     -6.12213321	     -1.00980202	      2.32010213	    -10.03732113	    -18.75459790	     19.02056071	     89.95437384	      0.00000000	      0.00000000	      9.22104135	     14.95046427	      6.04944591	     26.10650513	     89.95437384	      0.00000000	      0.00000000
      2.30000000	     -0.84843981	      5.49793543	     -1.19598021	     -0.45059644	      0.96085146	     -1.49344795	     18.89602032	    -19.17068618	    -16.11641312	    -52.03983624	     -0.90826648	      2.98951977	    -16.56771418	     15.61047802	      1.24270422	     -7.74485410	     12.84565194	    -10.37167119	     -0.18101981	      3.94952748	      5.82050365	     -3.72971152	     -3.82975352	     -6.00794029	     -1.49068680	      2.11750256	     -9.97338181	    -18.77940661	     19.14167598	     89.95437384	      0.00000000	      0.00000000	      9.95118944	     15.16549786	      5.88825501	     26.68078540	     89.95437384	      0.00000000	      0.00000000
      2.31000000	     -1.05652852	      4.94089083	     -0.90864612	     -0.44451475	      0.96049478	     -1.49442593	     19.66501452	    -18.23934187	    -16.43761924	    -50.59721737	     -0.88308804	      3.34746416	    -16.23912564	     15.44965520	      1.10144027	     -7.20375127	     12.22039921	    -10.56662781	     -0.18442245	      4.49934969	      5.91971484	     -3.92567553	     -3.77566239	     -5.37073695	     -2.01690974	      1.98653416	     -9.90253525	    -19.06280337	     19.09323162	     89.95437384	      0.00000000	      0.00000000	     10.75714864	     15.45303415	      5.19424490	     27.20144610	     89.95437384	      0.00000000	      0.00000000
      2.32000000	     -1.27954892	      4.98603540	     -0.83867014	     -0.43823147	      0.95985904	     -1.49564052	     20.68256955	    -18.06523037	    -16.51504055	    -49.27813496	     -0.86006570	      3.49512318	    -15.79183818	     15.20621266	      1.00563414	     -7.32667118	     12.31469774	    -10.75825207	     -0.18776692	      4.72207293	      5.86210050	     -3.95323647	     -3.62082567	     -5.39203279	     -2.42334224	      1.73160949	     -9.80871499	    -19.06828544	     19.27011411	     89.95437384	      0.00000000	      0.00000000	     11.45916761	     15.68370759	      5.05910314	     27.75968399	     89.95437384	      0.00000000	      0.00000000
      2.33000000	     -1.35555829	      4.34108676	     -0.63473670	     -0.43187499	      0.95956138	     -1.49626274	     21.15950209	    -16.97165575	    -16.75490337	    -47.51243172	     -0.82924837	      3.66668897	    -15.32388387	     15.07079958	      0.70062589	     -6.67287795	     11.85330508	    -10.92991302	     -0.19076297	      5.42435255	      6.10389316	     -4.22672625	     -3.65623565	     -4.67698721	     -2.82606014	      1.60289175	     -9.71966212	    -19.64704705	     19.18179668	     89.95437384	      0.00000000	      0.00000000	     12.23735285	     15.97658317	      4.18144151	     28.22239525	     89.95437384	      0.00000000	      0.00000000
      2.34000000	     -1.55991338	      4.44929568	     -0.60220300	     -0.42553067	      0.95885819	     -1.49716543	     22.07975837	    -16.81698481	    -16.75057901	    -46.05022466	     -0.80372804	      3.90215292	    -14.90716189	     14.85166491	      0.53912217	     -6.84716277	     11.99290162	    -11.03516655	     -0.19259999	      5.65135960	      6.02470461	     -4.27283905	     -3.52919666	     -4.77420662	     -3.21265400	      1.36446262	     -9.61062241	    -19.69651255	     19.33244370	     89.95437384	      0.00000000	      0.00000000	     12.88047370	     16.21417739	      4.09385911	     28.72779267	     89.95437384	      0.00000000	      0.00000000
